<svg xmlns="http://www.w3.org/2000/svg" width="800" height="640" viewBox="0 0 800 640"><defs><linearGradient id="bg" x2="1" y2="1"><stop stop-color="#eae7d9"/><stop offset="1" stop-color="#d8d9c7"/></linearGradient><linearGradient id="glass" x2="1"><stop stop-color="#604628"/><stop offset=".17" stop-color="#987746"/><stop offset=".4" stop-color="#b5975e"/><stop offset=".68" stop-color="#806235"/><stop offset="1" stop-color="#503d26"/></linearGradient><linearGradient id="cap" x2="1"><stop stop-color="#d4c6a3"/><stop offset=".3" stop-color="#f3e9d0"/><stop offset=".75" stop-color="#e0d3b3"/><stop offset="1" stop-color="#b9ac8b"/></linearGradient><linearGradient id="box" x2="1" y2=".3"><stop stop-color="#e4e3d4"/><stop offset="1" stop-color="#c9ccba"/></linearGradient><filter id="shadow"><feGaussianBlur stdDeviation="14"/></filter><filter id="soft"><feGaussianBlur stdDeviation="2"/></filter></defs><rect width="800" height="640" fill="url(#bg)"/><path d="M0 490 800 350V640H0Z" fill="#e6e4d5" opacity=".65"/><ellipse cx="415" cy="526" rx="190" ry="25" fill="#85866c" opacity=".24" filter="url(#shadow)"/><g transform="rotate(8 493 341)"><path d="M475 190 587 207 587 493 475 478Z" fill="#b8bea9"/><path d="M383 204 475 190V478L383 493Z" fill="url(#box)"/><path d="M383 204 493 221 587 207 475 190Z" fill="#f0eee0"/><path d="M383 204 493 221V510L383 493Z" fill="#e4e3d6"/><text x="439" y="271" text-anchor="middle" fill="#636b50" font-family="Georgia,serif" font-size="26">auré</text><path d="M410 291H467" stroke="#aab199"/><text x="439" y="322" text-anchor="middle" fill="#7e866d" font-family="Arial,sans-serif" font-size="7" letter-spacing="2">DAILY RITUAL</text><text x="439" y="345" text-anchor="middle" fill="#636b50" font-family="Georgia,serif" font-size="14">Botanical</text><text x="439" y="364" text-anchor="middle" fill="#636b50" font-family="Georgia,serif" font-size="14">face serum</text><text x="439" y="467" text-anchor="middle" fill="#8a917b" font-family="Arial,sans-serif" font-size="8" letter-spacing="1">30 ML / 1 FL OZ</text></g><g transform="rotate(-7 329 371)"><rect x="275" y="283" width="124" height="236" rx="21" fill="url(#glass)"/><path d="M280 304Q292 278 337 278T394 304" fill="#735736"/><rect x="292" y="240" width="90" height="63" rx="8" fill="url(#cap)"/><path d="M309 243V203Q309 180 337 180T365 203V243" fill="#e9e0c9"/><path d="M316 237V201Q318 188 333 187" fill="none" stroke="#fff9e6" stroke-width="4" opacity=".65"/><rect x="284" y="343" width="106" height="130" rx="1" fill="#f2eedf"/><text x="337" y="381" text-anchor="middle" fill="#576047" font-family="Georgia,serif" font-size="31">auré</text><text x="337" y="399" text-anchor="middle" fill="#79806b" font-family="Arial,sans-serif" font-size="6" letter-spacing="3">STUDIO</text><path d="M310 413H364" stroke="#c7c9b9"/><text x="337" y="433" text-anchor="middle" fill="#6e765f" font-family="Georgia,serif" font-size="11">Daily glow serum</text><text x="337" y="456" text-anchor="middle" fill="#929884" font-family="Arial,sans-serif" font-size="6" letter-spacing="1">30 ML · BOTANICAL CARE</text><path d="M288 320V335M288 482V493" stroke="#dcc593" stroke-width="4" opacity=".45" stroke-linecap="round"/></g><g fill="none" stroke="#848c67" stroke-width="2" opacity=".72"><path d="M589 552Q563 413 656 304"/><path d="M603 405Q551 383 578 352Q607 369 603 405Z" fill="#a4ad89"/><path d="M618 370Q650 344 659 364Q650 386 610 393Z" fill="#8e9974"/><path d="M590 451Q548 428 550 406Q581 402 592 433Z" fill="#939c75"/><path d="M635 339Q613 311 633 289Q650 308 635 339Z" fill="#9ea884"/></g><ellipse cx="174" cy="589" rx="105" ry="57" fill="#c6cbb4" opacity=".24" filter="url(#soft)"/></svg>
